<?xml version="1.0" standalone="no"?>
<!DOCTYPE svg PUBLIC "-//W3C//DTD SVG 20010904//EN"
 "http://www.w3.org/TR/2001/REC-SVG-20010904/DTD/svg10.dtd">
<svg version="1.0" xmlns="http://www.w3.org/2000/svg"
 width="166.000000pt" height="166.000000pt" viewBox="0 0 166.000000 166.000000"
 preserveAspectRatio="xMidYMid meet">
<metadata>
Created by potrace 1.11, written by Peter Selinger 2001-2013
</metadata>
<g transform="translate(0.000000,166.000000) scale(0.100000,-0.100000)"
fill="#000000" stroke="none">
<path d="M225 1111 c-23 -10 -53 -33 -68 -50 -17 -20 -31 -30 -39 -25 -8 5 -7
0 2 -11 14 -17 13 -18 -3 -12 -13 5 -16 3 -11 -5 5 -7 8 -42 9 -78 1 -79 26
-132 86 -184 24 -20 38 -36 33 -36 -6 0 -29 16 -52 36 -40 34 -55 36 -29 4 29
-37 78 -62 123 -63 33 0 41 -3 29 -9 -25 -15 -92 1 -126 29 -28 24 -92 132
-70 118 6 -3 11 -1 11 4 0 6 -3 11 -7 11 -5 0 -9 24 -11 53 -1 28 -5 60 -8 71
-4 12 -2 16 5 12 6 -4 11 -3 11 3 0 5 -4 12 -9 15 -14 9 -41 -70 -54 -155 -14
-96 -3 -138 52 -200 73 -83 176 -122 262 -99 55 15 91 42 209 153 64 60 115
99 164 123 39 19 60 32 46 28 -46 -12 -91 -33 -136 -63 -24 -17 -44 -27 -44
-22 0 13 19 26 85 62 77 41 129 42 209 6 67 -31 106 -61 219 -171 99 -95 168
-131 237 -123 66 8 137 46 187 99 52 57 67 103 60 182 -7 69 -67 247 -67 197
0 -7 -5 -9 -11 -6 -6 4 -8 9 -5 12 7 7 -44 61 -79 83 -28 17 -104 36 -91 22 4
-3 17 -7 29 -9 34 -5 95 -50 111 -81 54 -104 4 -238 -109 -291 -24 -11 -50
-21 -56 -21 -6 0 -48 35 -94 78 -220 204 -244 218 -335 208 -73 -9 -79 -9
-126 2 -59 13 -124 -9 -176 -59 -24 -23 -61 -55 -83 -72 -22 -17 -66 -56 -97
-88 -31 -31 -66 -60 -77 -64 -31 -10 -117 39 -151 87 -55 76 -60 159 -13 231
32 50 99 81 157 74 28 -4 35 -3 21 3 -32 14 -77 11 -120 -9z m1311 -126 c-3
-8 -2 -15 2 -15 16 0 2 -113 -18 -152 -11 -22 -17 -44 -14 -50 4 -6 2 -8 -3
-5 -6 4 -17 0 -24 -9 -15 -18 -69 -48 -75 -41 -3 2 11 15 29 27 57 39 90 104
93 185 3 81 2 75 10 75 3 0 4 -7 0 -15z m-736 -5 c0 -5 -2 -10 -4 -10 -3 0 -8
5 -11 10 -3 6 -1 10 4 10 6 0 11 -4 11 -10z m50 -9 c-13 -11 -28 -17 -33 -14
-5 3 2 11 15 18 35 20 46 17 18 -4z m-761 -88 c-1 -61 -3 -73 -11 -53 -5 14
-7 43 -4 65 3 22 5 46 5 53 1 6 3 12 6 12 2 0 4 -35 4 -77z m1468 35 c-3 -8
-6 -5 -6 6 -1 11 2 17 5 13 3 -3 4 -12 1 -19z m-798 -2 c-2 -2 -23 -6 -47 -10
-23 -3 -52 -10 -63 -17 -11 -6 -23 -8 -26 -6 -9 9 38 29 86 36 43 7 60 6 50
-3z m258 -21 c14 -9 22 -19 19 -22 -3 -3 -11 -1 -18 5 -7 5 -29 13 -48 17 -19
3 -44 8 -55 10 -11 2 -33 4 -50 5 l-30 2 30 7 c40 9 121 -4 152 -24z m18 15
c10 -11 16 -20 13 -20 -3 0 -13 9 -23 20 -10 11 -16 20 -13 20 3 0 13 -9 23
-20z m521 -91 c-9 -19 -14 -25 -12 -14 2 11 8 38 12 60 7 34 8 36 12 14 1 -15
-4 -42 -12 -60z m-1000 33 c-18 -16 -18 -16 -6 6 6 13 14 21 18 18 3 -4 -2
-14 -12 -24z m535 11 c13 -16 12 -17 -3 -4 -10 7 -18 15 -18 17 0 8 8 3 21
-13z m-221 -3 c0 -5 -5 -10 -11 -10 -5 0 -7 5 -4 10 3 6 8 10 11 10 2 0 4 -4
4 -10z m65 -30 c3 -6 -1 -7 -9 -4 -18 7 -21 14 -7 14 6 0 13 -4 16 -10z m305
-98 c0 -11 -65 37 -79 58 -12 19 -5 16 32 -15 26 -21 47 -41 47 -43z m-776 37
c-10 -11 -28 -26 -39 -31 -12 -7 -7 3 14 26 36 37 59 42 25 5z m56 -19 c-30
-28 -58 -51 -62 -51 -19 -3 -25 -6 -56 -23 -18 -9 -41 -15 -50 -13 -11 2 0 11
31 25 27 12 53 20 57 17 5 -3 10 -1 12 5 3 10 107 88 118 89 3 0 -20 -22 -50
-49z m511 24 l24 -27 -27 18 c-16 9 -28 21 -28 26 0 14 5 11 31 -17z m129 -43
c19 -17 31 -30 25 -30 -5 0 -35 23 -65 51 -55 51 -25 36 40 -21z m-1068 -26
c30 -56 103 -105 192 -131 l51 -14 -47 5 c-110 11 -216 100 -232 195 l-6 35
13 -30 c6 -16 19 -43 29 -60z m1488 36 c-12 -42 -25 -63 -62 -98 -45 -44 -134
-83 -183 -82 l-40 1 46 8 c93 16 189 84 221 158 22 48 30 55 18 13z m-990 6
c0 -2 -19 -21 -42 -42 l-43 -40 40 43 c36 39 45 47 45 39z m886 -26 c-36 -37
-98 -58 -128 -43 -22 11 -22 11 4 6 29 -6 105 23 127 49 7 10 16 17 19 17 3 0
-7 -13 -22 -29z m54 -2 c0 -10 -59 -59 -71 -59 -5 0 2 12 16 27 14 15 25 30
25 34 0 3 7 6 15 6 8 0 15 -4 15 -8z m-1378 -17 c7 -10 22 -24 33 -30 25 -14
1 -16 -25 -2 -23 12 -46 50 -31 50 5 0 16 -8 23 -18z m1105 -14 c31 -14 42
-23 31 -25 -18 -4 -73 20 -83 37 -9 14 -3 13 52 -12z"/>
<path d="M1298 1113 c6 -2 18 -2 25 0 6 3 1 5 -13 5 -14 0 -19 -2 -12 -5z"/>
<path d="M120 815 c0 -5 5 -17 10 -25 5 -8 10 -10 10 -5 0 6 -5 17 -10 25 -5
8 -10 11 -10 5z"/>
</g>
</svg>
